<svg width="18" height="17" viewBox="0 0 33 29" fill="none" xmlns="http://www.w3.org/2000/svg">
<path d="M32.0745 1.41592C32.0554 1.13052 31.9173 0.861184 31.6862 0.659036C31.4552 0.456888 31.1474 0.336005 30.8212 0.319339C18.1334 -0.332483 7.97045 3.00975 3.63729 9.28007C2.13529 11.425 1.39514 13.9119 1.51071 16.4253C1.6057 18.7468 2.37901 21.0916 3.80895 23.4029L0.557413 26.2464C0.307235 26.4653 0.166687 26.7622 0.166687 27.0717C0.166687 27.3813 0.307235 27.6782 0.557413 27.8971C0.80759 28.116 1.1469 28.239 1.50071 28.239C1.85451 28.239 2.19383 28.116 2.444 27.8971L5.69387 25.0521C8.33377 26.3018 11.0153 26.9784 13.6669 27.0615C13.8524 27.0674 14.0374 27.0703 14.2219 27.0703C16.908 27.0766 19.5432 26.4293 21.8332 25.2009C28.9996 21.4095 32.8211 12.5188 32.0745 1.41592ZM20.4583 23.206C16.6668 25.2154 12.1786 25.2475 7.67379 23.3183L22.4449 10.3956C22.5687 10.2872 22.667 10.1585 22.7341 10.0169C22.8011 9.87532 22.8356 9.72353 22.8356 9.57025C22.8356 9.41697 22.8011 9.26519 22.7341 9.12358C22.667 8.98196 22.5687 8.85329 22.4449 8.7449C22.321 8.63652 22.1739 8.55054 22.0121 8.49188C21.8502 8.43322 21.6768 8.40303 21.5016 8.40303C21.3264 8.40303 21.1529 8.43322 20.9911 8.49188C20.8292 8.55054 20.6822 8.63652 20.5583 8.7449L5.78887 21.6749C3.59063 17.7377 3.62229 13.8005 5.9172 10.4889C9.59872 5.17082 18.35 2.25876 29.4679 2.60582C29.8662 12.3263 26.5364 19.9848 20.4583 23.206Z" fill="white"/>
</svg>
