<svg width="50" height="50" viewBox="0 0 50 50" fill="none" xmlns="http://www.w3.org/2000/svg">
<path d="M49.2674 45.7301C49.4997 45.9624 49.6839 46.2381 49.8096 46.5416C49.9353 46.845 50 47.1703 50 47.4987C50 47.8272 49.9353 48.1525 49.8096 48.4559C49.6839 48.7594 49.4997 49.0351 49.2674 49.2674C49.0351 49.4997 48.7594 49.6839 48.4559 49.8096C48.1525 49.9353 47.8272 50 47.4987 50C47.1703 50 46.845 49.9353 46.5416 49.8096C46.2381 49.6839 45.9624 49.4997 45.7301 49.2674L25 28.5342L4.2699 49.2674C3.80083 49.7365 3.16462 50 2.50125 50C1.83788 50 1.20167 49.7365 0.732599 49.2674C0.263524 48.7983 1.30767e-08 48.1621 0 47.4987C-1.30767e-08 46.8354 0.263524 46.1992 0.732599 45.7301L21.4658 25L0.732599 4.2699C0.263524 3.80083 0 3.16462 0 2.50125C0 1.83788 0.263524 1.20167 0.732599 0.732599C1.20167 0.263524 1.83788 0 2.50125 0C3.16462 0 3.80083 0.263524 4.2699 0.732599L25 21.4658L45.7301 0.732599C46.1992 0.263524 46.8354 -1.30767e-08 47.4987 0C48.1621 1.30767e-08 48.7983 0.263524 49.2674 0.732599C49.7365 1.20167 50 1.83788 50 2.50125C50 3.16462 49.7365 3.80083 49.2674 4.2699L28.5342 25L49.2674 45.7301Z" fill="white"/>
</svg>
