<svg width="18" height="'18'" viewBox="0 0 36 30" fill="none" xmlns="http://www.w3.org/2000/svg">
<path d="M35.7793 1.92964C35.7626 1.63402 35.6417 1.35503 35.4395 1.14564C35.2373 0.936246 34.9679 0.811031 34.6824 0.793768C27.1329 0.340626 21.071 2.71811 18.466 7.17099C16.7449 10.1149 16.7478 13.6902 18.4427 17.1008C17.478 18.2901 16.7729 19.6813 16.3759 21.1791L14.0028 18.7125C15.1434 16.2459 15.0996 13.6751 13.8569 11.5393C11.9316 8.24795 7.48736 6.48372 1.96959 6.81905C1.68413 6.83631 1.41472 6.96152 1.21253 7.17092C1.01033 7.38031 0.889416 7.6593 0.872746 7.95492C0.547484 13.669 2.25255 18.2715 5.43078 20.2653C6.47959 20.9289 7.68478 21.2801 8.91385 21.2803C10.1068 21.2651 11.2812 20.9724 12.3502 20.4239L15.9967 24.2001V28.5306C15.9967 28.8511 16.1196 29.1584 16.3384 29.385C16.5573 29.6117 16.854 29.739 17.1635 29.739C17.473 29.739 17.7698 29.6117 17.9886 29.385C18.2074 29.1584 18.3304 28.8511 18.3304 28.5306V24.0762C18.3252 22.1538 18.9569 20.2878 20.12 18.7895C21.6208 19.6018 23.2853 20.0365 24.9785 20.0583C26.6156 20.0638 28.2223 19.6007 29.6212 18.7201C33.921 16.0254 36.2227 9.74785 35.7793 1.92964ZM6.6341 18.199C4.39665 16.7957 3.13061 13.4742 3.16124 9.19653C7.29191 9.16028 10.4993 10.4759 11.8543 12.793C12.5617 14.0013 12.677 15.4106 12.2131 16.8622L8.65276 13.1751C8.43215 12.9581 8.1384 12.8389 7.83413 12.8429C7.52985 12.8469 7.23914 12.9739 7.02397 13.1967C6.8088 13.4195 6.6862 13.7206 6.6823 14.0357C6.67841 14.3508 6.79353 14.655 7.00312 14.8835L10.5635 18.5705C9.1618 19.0509 7.80241 18.9315 6.6341 18.199ZM28.412 16.6552C26.4575 17.8802 24.1603 17.9739 21.8266 16.9573L29.6576 8.8461C29.8672 8.61764 29.9823 8.31343 29.9784 7.99833C29.9746 7.68324 29.852 7.38218 29.6368 7.15935C29.4216 6.93652 29.1309 6.80956 28.8266 6.80553C28.5224 6.80149 28.2286 6.92071 28.008 7.13776L20.1755 15.2384C19.1895 12.8217 19.2784 10.4412 20.4672 8.41864C22.5004 4.94455 27.3225 3.00812 33.4966 3.15766C33.6366 9.54998 31.7696 14.5496 28.412 16.6552Z" fill="white"/>
</svg>
