<svg width="35" height="35" viewBox="0 0 53 51" fill="none" xmlns="http://www.w3.org/2000/svg">
<path d="M52.666 47.0068C48.8559 40.4243 42.9843 35.7043 36.1321 33.4668C39.5215 31.4504 42.1549 28.378 43.6278 24.7213C45.1007 21.0646 45.3317 17.0258 44.2854 13.2252C43.239 9.42458 40.9731 6.07229 37.8357 3.68311C34.6982 1.29394 30.8627 0 26.9182 0C22.9736 0 19.1381 1.29394 16.0007 3.68311C12.8632 6.07229 10.5973 9.42458 9.55096 13.2252C8.5046 17.0258 8.73562 21.0646 10.2085 24.7213C11.6815 28.378 14.3148 31.4504 17.7043 33.4668C10.852 35.7018 4.98044 40.4218 1.1703 47.0068C1.03057 47.2345 0.937893 47.4878 0.897729 47.7519C0.857565 48.0159 0.870729 48.2853 0.936444 48.5442C1.00216 48.8031 1.1191 49.0462 1.28035 49.2591C1.44161 49.4721 1.64392 49.6507 1.87535 49.7843C2.10678 49.9178 2.36263 50.0038 2.62783 50.0369C2.89302 50.0701 3.16217 50.0499 3.41941 49.9774C3.67665 49.9049 3.91675 49.7817 4.12557 49.615C4.33438 49.4483 4.50766 49.2415 4.6352 49.0068C9.34847 40.8668 17.6793 36.0068 26.9182 36.0068C36.1571 36.0068 44.4879 40.8668 49.2011 49.0068C49.3287 49.2415 49.5019 49.4483 49.7108 49.615C49.9196 49.7817 50.1597 49.9049 50.4169 49.9774C50.6741 50.0499 50.9433 50.0701 51.2085 50.0369C51.4737 50.0038 51.7295 49.9178 51.961 49.7843C52.1924 49.6507 52.3947 49.4721 52.556 49.2591C52.7172 49.0462 52.8342 48.8031 52.8999 48.5442C52.9656 48.2853 52.9788 48.0159 52.9386 47.7519C52.8984 47.4878 52.8058 47.2345 52.666 47.0068ZM12.9084 18.0068C12.9084 15.2379 13.7301 12.5311 15.2695 10.2288C16.8089 7.92653 18.9969 6.13211 21.5569 5.07249C24.1168 4.01286 26.9337 3.73561 29.6513 4.27581C32.3689 4.816 34.8652 6.14937 36.8245 8.10731C38.7838 10.0652 40.1181 12.5598 40.6587 15.2755C41.1993 17.9913 40.9218 20.8062 39.8615 23.3644C38.8011 25.9225 37.0054 28.109 34.7015 29.6474C32.3977 31.1857 29.689 32.0068 26.9182 32.0068C23.2038 32.0028 19.6427 30.5266 17.0162 27.9019C14.3897 25.2773 12.9124 21.7186 12.9084 18.0068Z" fill="white"/>
</svg>
