<svg width="25" height="15" viewBox="0 0 36 26" fill="none" xmlns="http://www.w3.org/2000/svg">
<path d="M34.813 6.16391L27.5718 0.991598C27.4596 0.911504 27.3265 0.84797 27.18 0.804624C27.0335 0.761278 26.8765 0.738968 26.7179 0.738968C26.5593 0.738968 26.4023 0.761278 26.2558 0.804624C26.1093 0.84797 25.9762 0.911504 25.864 0.991598C25.7519 1.07169 25.663 1.16678 25.6023 1.27142C25.5416 1.37607 25.5104 1.48823 25.5104 1.6015C25.5104 1.71477 25.5416 1.82693 25.6023 1.93158C25.663 2.03622 25.7519 2.13131 25.864 2.2114L28.6323 4.18766L17.9213 11.8384L12.7348 8.14016C12.2822 7.81708 11.6684 7.63559 11.0286 7.63559C10.3887 7.63559 9.77496 7.81708 9.32234 8.14016L0.874227 14.1745C0.649137 14.3343 0.47069 14.5244 0.349236 14.7338C0.227781 14.9432 0.165736 15.1677 0.166698 15.3943V24.0149C0.166698 24.4721 0.421003 24.9106 0.873668 25.234C1.32633 25.5573 1.94028 25.739 2.58044 25.739H14.6492C14.9663 25.7397 15.2804 25.6954 15.5733 25.6086C15.8662 25.5219 16.1321 25.3944 16.3554 25.2336L24.8035 19.1992C25.2558 18.8759 25.5099 18.4376 25.5099 17.9805C25.5099 17.5234 25.2558 17.0851 24.8035 16.7618L19.6275 13.0603L30.3385 5.40961L33.1053 7.38695C33.2174 7.46704 33.3505 7.53057 33.497 7.57392C33.6435 7.61727 33.8006 7.63958 33.9591 7.63958C34.1177 7.63958 34.2747 7.61727 34.4212 7.57392C34.5678 7.53057 34.7009 7.46704 34.813 7.38695C34.9251 7.30685 35.0141 7.21177 35.0748 7.10712C35.1354 7.00247 35.1667 6.89031 35.1667 6.77704C35.1667 6.66378 35.1354 6.55162 35.0748 6.44697C35.0141 6.34232 34.9251 6.24724 34.813 6.16714V6.16391ZM23.0973 17.9805L14.6492 24.0149H2.58044V15.3943L11.0286 9.35997L16.2091 13.0603L10.1747 17.3706C10.0626 17.4507 9.97361 17.5458 9.91293 17.6504C9.85224 17.7551 9.82101 17.8672 9.82101 17.9805C9.82101 18.0938 9.85224 18.2059 9.91293 18.3106C9.97361 18.4152 10.0626 18.5103 10.1747 18.5904C10.4012 18.7521 10.7083 18.843 11.0286 18.843C11.1871 18.843 11.3442 18.8207 11.4907 18.7774C11.6372 18.734 11.7703 18.6705 11.8824 18.5904L17.9168 14.2801L23.0973 17.9805Z" fill="white"/>
</svg>
