<svg width="23" height="17" viewBox="0 0 36 26" fill="none" xmlns="http://www.w3.org/2000/svg">
<path d="M34.8574 13.4705C34.7086 13.2158 34.5091 12.9926 34.2707 12.8138C34.0323 12.6351 33.7597 12.5043 33.4689 12.4293C32.4137 12.1648 31.3233 12.0585 30.2352 12.114C30.8187 9.29437 30.3811 7.06425 29.9348 5.74181C29.7569 5.19858 29.3776 4.73934 28.8709 4.45362C28.3643 4.1679 27.7665 4.07619 27.1942 4.19635C25.71 4.51827 24.2987 5.10172 23.03 5.91794C22.1008 4.06943 20.7479 2.45352 19.0758 1.19493C18.6706 0.898961 18.1777 0.738968 17.6712 0.738968C17.1647 0.738968 16.6719 0.898961 16.2666 1.19493C14.5941 2.45316 13.2412 4.06915 12.3125 5.91794C11.0438 5.10172 9.6325 4.51827 8.14831 4.19635C7.57597 4.07619 6.97819 4.1679 6.47152 4.45362C5.96484 4.73934 5.58558 5.19858 5.40768 5.74181C4.97011 7.06425 4.53254 9.29295 5.10722 12.114C4.01915 12.0585 2.92875 12.1648 1.87359 12.4293C1.58274 12.5043 1.31015 12.6351 1.07174 12.8138C0.833333 12.9926 0.633886 13.2158 0.485047 13.4705C0.329281 13.7314 0.228421 14.0198 0.188354 14.3191C0.148286 14.6183 0.169813 14.9223 0.251678 15.2134C0.746129 16.9989 2.26449 20.3952 6.86332 23.0714C11.4622 25.7475 15.5024 25.739 17.6785 25.739C19.8547 25.739 23.9022 25.739 28.4718 23.0714C33.0707 20.3952 34.589 16.9989 35.0835 15.2134C35.1664 14.9228 35.1892 14.619 35.1504 14.3198C35.1115 14.0206 35.012 13.7319 34.8574 13.4705ZM7.6276 6.44067C7.62935 6.43362 7.63379 6.42749 7.64003 6.42353C7.64627 6.41957 7.65382 6.41808 7.66115 6.41937C9.01832 6.71794 10.2991 7.2819 11.4257 8.07704C10.9127 9.71135 10.6579 11.4121 10.6702 13.1211C10.6702 15.783 11.22 17.9506 11.9989 19.6949C10.8916 18.6156 9.93355 17.4004 9.14888 16.0799C6.52056 11.6225 7.06752 8.12533 7.6276 6.44067ZM8.06517 21.1211C4.1752 18.8597 2.91355 16.087 2.50223 14.6168C3.57547 14.3595 4.68913 14.3031 5.78399 14.4506C6.1495 15.4041 6.5959 16.3264 7.11857 17.2077C8.40189 19.3624 10.0832 21.2676 12.0777 22.827C10.6673 22.4321 9.31632 21.8586 8.05934 21.1211H8.06517ZM17.6712 23.239C16.3104 22.2532 13.0038 19.229 13.0038 13.1211C13.0038 7.0884 16.2681 4.0401 17.6712 3.0117C19.0744 4.04295 22.3386 7.09124 22.3386 13.1239C22.3386 19.229 19.0321 22.2532 17.6712 23.239ZM23.9168 8.07704C25.0435 7.2824 26.3243 6.71893 27.6813 6.42079C27.6886 6.4195 27.6962 6.42099 27.7024 6.42495C27.7087 6.42891 27.7131 6.43504 27.7149 6.44209C28.2749 8.12533 28.8219 11.6225 26.1936 16.0799C25.4096 17.4021 24.4515 18.6189 23.3436 19.6992C24.1224 17.9577 24.6723 15.7873 24.6723 13.1253C24.685 11.415 24.4302 9.71272 23.9168 8.07704ZM32.8402 14.6196C32.4362 16.0756 31.1775 18.854 27.2846 21.1211C26.0275 21.8581 24.6765 22.4312 23.2663 22.8256C25.2607 21.2661 26.942 19.361 28.2254 17.2063C28.748 16.3249 29.1944 15.4027 29.5599 14.4492C30.6545 14.3023 31.7677 14.3597 32.8402 14.6182V14.6196Z" fill="white"/>
</svg>
