<svg width="19" height="19" viewBox="0 0 20 21" fill="none" xmlns="http://www.w3.org/2000/svg">
<path d="M19.6598 19.108L14.9658 14.4149C16.3263 12.7815 17.0047 10.6864 16.8599 8.56558C16.7151 6.44472 15.7583 4.46132 14.1884 3.02799C12.6184 1.59466 10.5564 0.821755 8.43113 0.870055C6.30588 0.918355 4.28106 1.78414 2.77789 3.28731C1.27472 4.79048 0.408932 6.8153 0.360632 8.94055C0.312332 11.0658 1.08524 13.1279 2.51857 14.6978C3.9519 16.2677 5.93529 17.2246 8.05616 17.3694C10.177 17.5142 12.2721 16.8357 13.9055 15.4752L18.5986 20.1693C18.6683 20.239 18.751 20.2942 18.842 20.3319C18.9331 20.3697 19.0307 20.3891 19.1292 20.3891C19.2278 20.3891 19.3253 20.3697 19.4164 20.3319C19.5074 20.2942 19.5902 20.239 19.6598 20.1693C19.7295 20.0996 19.7848 20.0169 19.8225 19.9258C19.8602 19.8348 19.8796 19.7372 19.8796 19.6386C19.8796 19.5401 19.8602 19.4425 19.8225 19.3515C19.7848 19.2604 19.7295 19.1777 19.6598 19.108ZM1.87922 9.13864C1.87922 7.80362 2.2751 6.49857 3.0168 5.38854C3.7585 4.27851 4.81271 3.41335 6.04611 2.90246C7.27951 2.39156 8.63671 2.25789 9.94608 2.51834C11.2555 2.77879 12.4582 3.42167 13.4022 4.36567C14.3462 5.30968 14.9891 6.51241 15.2495 7.82178C15.51 9.13115 15.3763 10.4884 14.8654 11.7218C14.3545 12.9552 13.4894 14.0094 12.3793 14.7511C11.2693 15.4928 9.96424 15.8886 8.62922 15.8886C6.83962 15.8867 5.12388 15.1749 3.85844 13.9094C2.593 12.644 1.8812 10.9282 1.87922 9.13864Z" fill="#1F5014"/>
</svg>
