<svg width="35" height="35" viewBox="0 0 25 25" fill="none" xmlns="http://www.w3.org/2000/svg">
<path d="M21.6981 12.2453C21.6981 12.4442 21.6191 12.635 21.4784 12.7756C21.3378 12.9163 21.147 12.9953 20.9481 12.9953H6.25841L11.7287 18.4647C11.7984 18.5343 11.8537 18.6171 11.8914 18.7081C11.9291 18.7992 11.9485 18.8967 11.9485 18.9953C11.9485 19.0938 11.9291 19.1914 11.8914 19.2825C11.8537 19.3735 11.7984 19.4562 11.7287 19.5259C11.659 19.5956 11.5763 19.6509 11.4853 19.6886C11.3942 19.7263 11.2966 19.7457 11.1981 19.7457C11.0996 19.7457 11.002 19.7263 10.9109 19.6886C10.8199 19.6509 10.7372 19.5956 10.6675 19.5259L3.91747 12.7759C3.84774 12.7063 3.79242 12.6235 3.75468 12.5325C3.71694 12.4414 3.69751 12.3439 3.69751 12.2453C3.69751 12.1467 3.71694 12.0491 3.75468 11.9581C3.79242 11.867 3.84774 11.7843 3.91747 11.7147L10.6675 4.96467C10.8082 4.82393 10.9991 4.74487 11.1981 4.74487C11.3971 4.74487 11.588 4.82393 11.7287 4.96467C11.8695 5.1054 11.9485 5.29627 11.9485 5.49529C11.9485 5.69431 11.8695 5.88518 11.7287 6.02592L6.25841 11.4953H20.9481C21.147 11.4953 21.3378 11.5743 21.4784 11.715C21.6191 11.8556 21.6981 12.0464 21.6981 12.2453Z" fill="white"/>
</svg>
