<svg width="18" height="18" viewBox="0 0 36 30" fill="none" xmlns="http://www.w3.org/2000/svg">
<path d="M29.5674 17.4699H16.1445L16.5558 17.1422L20.0664 14.3454C21.4843 14.9143 23.0466 15.2176 24.634 15.2322C26.2319 15.2355 27.7999 14.8872 29.1649 14.2255C33.3161 12.2235 35.5404 7.5891 35.1151 1.82821C35.0951 1.55535 34.95 1.29783 34.7074 1.10455C34.4648 0.911279 34.1416 0.795702 33.7991 0.779767C26.5678 0.442368 20.7507 2.21302 18.2376 5.52009C16.5995 7.67415 16.5575 10.2757 18.0853 12.77L15.567 14.7763L13.4302 13.0739C14.4802 11.2266 14.405 9.30956 13.1869 7.709C11.2846 5.20081 6.92349 3.86376 1.51932 4.11612C1.1774 4.13235 0.854815 4.24787 0.612613 4.44083C0.370412 4.63378 0.225403 4.89077 0.205029 5.16317C-0.113481 9.4671 1.56657 12.9415 4.71667 14.4584C5.77054 14.971 6.98198 15.2413 8.21678 15.2391C9.337 15.2303 10.442 15.0311 11.4579 14.655L13.5859 16.3545L12.1859 17.4699H4.36666C3.99534 17.4699 3.63924 17.5874 3.37668 17.7966C3.11412 18.0057 2.96662 18.2894 2.96662 18.5852C2.96662 18.8811 3.11412 19.1648 3.37668 19.3739C3.63924 19.5831 3.99534 19.7006 4.36666 19.7006H6.04496L8.35678 27.992C8.4923 28.4886 8.83774 28.9331 9.33533 29.2511C9.83291 29.569 10.4525 29.7413 11.0904 29.7389H22.8455C23.4834 29.7413 24.1029 29.569 24.6005 29.2511C25.0981 28.9331 25.4436 28.4886 25.5791 27.992L27.8909 19.7006H29.5674C29.9388 19.7006 30.2949 19.5831 30.5574 19.3739C30.82 19.1648 30.9675 18.8811 30.9675 18.5852C30.9675 18.2894 30.82 18.0057 30.5574 17.7966C30.2949 17.5874 29.9388 17.4699 29.5674 17.4699ZM20.6422 6.67589C22.4727 4.26948 26.8094 2.91152 32.3675 2.97147C32.4393 7.40646 30.7382 10.8599 27.7176 12.3127C25.7033 13.2886 23.2725 13.2245 20.8434 12.1482C19.4906 10.22 19.4171 8.28063 20.6422 6.67589ZM10.6861 12.4661C9.07606 13.1534 7.48176 13.1855 6.16571 12.5497C4.15315 11.5779 2.99287 9.28725 2.96662 6.31618C6.69598 6.3371 9.57307 7.26146 10.7911 8.8648C11.5891 9.91325 11.5419 11.1834 10.6861 12.4661ZM22.8455 27.5082H11.0904L8.9168 19.7006H25.0173L22.8455 27.5082Z" fill="white"/>
</svg>
