<svg width="40" height="35" viewBox="0 0 61 50" fill="none" xmlns="http://www.w3.org/2000/svg">
<path d="M60.4465 9.92258C60.2378 9.71458 59.9767 9.54728 59.6819 9.4325C59.387 9.31772 59.0655 9.25825 58.7399 9.2583H13.9027L12.2128 1.52067C12.1197 1.09402 11.8498 0.708109 11.4501 0.430212C11.0503 0.152315 10.5462 6.26722e-05 10.0254 0H3.15199C2.56227 0 1.99671 0.195085 1.57972 0.542338C1.16273 0.889592 0.928467 1.36057 0.928467 1.85166C0.928467 2.34275 1.16273 2.81373 1.57972 3.16098C1.99671 3.50823 2.56227 3.70332 3.15199 3.70332H8.1549L15.259 36.1745C15.4683 37.1375 15.9794 38.0373 16.7405 38.783C15.69 39.6001 14.9318 40.6435 14.5499 41.7975C14.168 42.9515 14.1774 44.1711 14.5771 45.3209C14.9767 46.4708 15.7509 47.506 16.8139 48.3118C17.8769 49.1176 19.1871 49.6624 20.5993 49.886C22.0114 50.1095 23.4703 50.003 24.8142 49.5782C26.1581 49.1534 27.3344 48.427 28.2128 47.4795C29.0912 46.5319 29.6373 45.4003 29.7905 44.2101C29.9438 43.0199 29.6982 41.8176 29.081 40.7365H41.705C41.2076 41.6037 40.9502 42.5529 40.9518 43.514C40.9518 44.7958 41.4082 46.0488 42.2634 47.1145C43.1185 48.1803 44.3339 49.011 45.756 49.5015C47.178 49.992 48.7427 50.1203 50.2524 49.8703C51.762 49.6202 53.1487 49.003 54.237 48.0966C55.3254 47.1903 56.0666 46.0355 56.3669 44.7783C56.6672 43.5212 56.5131 42.2181 55.924 41.0339C55.335 39.8497 54.3375 38.8375 53.0577 38.1254C51.7779 37.4133 50.2733 37.0332 48.7341 37.0332H21.8212C21.3005 37.0331 20.7963 36.8809 20.3966 36.603C19.9968 36.3251 19.7269 35.9392 19.6338 35.5125L18.7527 31.4782H50.9938C52.5559 31.478 54.0685 31.0213 55.2677 30.1876C56.4669 29.3539 57.2767 28.1961 57.5559 26.9162L60.9357 11.4409C60.9929 11.1735 60.9787 10.8988 60.8942 10.6364C60.8096 10.374 60.6568 10.1303 60.4465 9.92258ZM25.3872 43.514C25.3872 44.0633 25.1916 44.6003 24.8251 45.0571C24.4586 45.5138 23.9377 45.8698 23.3282 46.08C22.7188 46.2903 22.0482 46.3453 21.4012 46.2381C20.7542 46.1309 20.1599 45.8664 19.6935 45.478C19.227 45.0895 18.9094 44.5946 18.7807 44.0558C18.652 43.5171 18.7181 42.9586 18.9705 42.4511C19.2229 41.9436 19.6504 41.5098 20.1989 41.2046C20.7474 40.8994 21.3922 40.7365 22.0519 40.7365C22.9365 40.7365 23.7848 41.0291 24.4103 41.55C25.0358 42.0709 25.3872 42.7773 25.3872 43.514ZM52.0694 43.514C52.0694 44.0633 51.8738 44.6003 51.5073 45.0571C51.1408 45.5138 50.6199 45.8698 50.0105 46.08C49.401 46.2903 48.7304 46.3453 48.0834 46.2381C47.4365 46.1309 46.8422 45.8664 46.3757 45.478C45.9093 45.0895 45.5916 44.5946 45.4629 44.0558C45.3342 43.5171 45.4003 42.9586 45.6527 42.4511C45.9052 41.9436 46.3327 41.5098 46.8811 41.2046C47.4296 40.8994 48.0745 40.7365 48.7341 40.7365C49.6187 40.7365 50.467 41.0291 51.0925 41.55C51.718 42.0709 52.0694 42.7773 52.0694 43.514ZM53.1812 26.2542C53.0878 26.682 52.8167 27.0689 52.4152 27.3469C52.0137 27.6249 51.5076 27.7765 50.9854 27.7749H17.9439L14.7115 12.9616H56.0745L53.1812 26.2542Z" fill="white"/>
</svg>
